<svg xmlns="http://www.w3.org/2000/svg" viewBox="0 0 512 512">
  <defs>
    <linearGradient id="bg" x1="0%" y1="0%" x2="100%" y2="100%">
      <stop offset="0%" stop-color="#0f172a"/>
      <stop offset="100%" stop-color="#1e293b"/>
    </linearGradient>
  </defs>
  <rect width="512" height="512" rx="108" ry="108" fill="url(#bg)"/>
  <g fill="#4ade80">
    <!-- Vertical bar -->
    <rect x="241" y="80" width="30" height="352" rx="15"/>
    <!-- S-shape -->
    <path fill-rule="evenodd" d="
      M256 136
      C172 136 120 168 120 220
      C120 272 168 296 256 316
      C320 332 352 348 352 380
      C352 408 316 428 256 428
      C196 428 160 408 160 380
      L120 380
      C120 432 172 464 256 464
      C340 464 392 432 392 380
      C392 324 340 300 256 280
      C192 264 160 248 160 220
      C160 192 196 172 256 172
      C316 172 352 192 352 220
      L392 220
      C392 168 340 136 256 136
      Z
    "/>
  </g>
</svg>
